<svg width="170" height="20" viewBox="0 0 170 20" xmlns="http://www.w3.org/2000/svg" class="Logo__LogoMediumOnDark-sc-1wzvhm1-0 iXuTSw no-color-cascade-svg" aria-label="Mixcloud Logo"><path d="M169.773 9.96c0-8.338-5.212-9.685-10.18-9.685h-6.75v19.397h6.75c4.968 0 10.18-1.347 10.18-9.712zm-3.51 0c0 6.22-3.239 6.633-6.67 6.633H158l-.103.003c-.665-.007-1.014.1-1.341.292l-.738.471-.615-.617.431-.246v-.001c.274-.186.494-.46.637-.846.069-.23.108-.502.108-.827h.001V5.049a3.079 3.079 0 0 0-.056-.533c-.137-.47-.382-.788-.69-.998l-.43-.247.614-.617.738.47c.143.085.312.152.51.2.07.013.244.023.32.03h2.206c3.432 0 6.672.414 6.672 6.607zm-16.701 2.506V.276h-3.537v10.869c0 3.66-.741 5.723-4.777 5.723-4.036 0-4.777-2.064-4.777-5.723V.275h-3.537v12.19c0 4.843 2.741 7.482 8.314 7.482 5.545 0 8.314-2.639 8.314-7.481zM130.169 9.96c0-5.643-3.592-9.96-9.522-9.96-5.957 0-9.55 4.317-9.55 9.96 0 5.67 3.593 9.987 9.55 9.987 5.93 0 9.522-4.317 9.522-9.987zm-3.537 0c0 4.1-1.976 6.908-5.985 6.908-4.008 0-6.012-2.807-6.012-6.908 0-4.074 2.004-6.881 6.012-6.881 4.009 0 5.985 2.807 5.985 6.88zM94.72 19.946l14.204-2.49v-3.39l-13.769 2.387-.389-.426c.413-.126 1.401-.506 1.401-1.26L96.173.274h-3.537v17.638c0 1.32.768 2.062 2.084 2.034zM74.29 9.96c0-4.267 2.251-6.881 6.094-6.881 3.073 0 5.214 1.651 5.653 4.679h3.54C89.001 2.968 85.57 0 80.328 0c-5.956 0-9.575 4.317-9.575 9.96 0 5.67 3.62 9.987 9.575 9.987 5.242 0 8.673-2.969 9.25-7.785h-3.541c-.439 3.028-2.58 4.706-5.653 4.706-3.843 0-6.094-2.615-6.094-6.908zm-15.289 2.984l9.193 6.632v-4.072L60.4 9.974l7.794-5.53V.372L59 7.03h-.988L48.847.37v4.073l7.766 5.53-7.766 5.529v4.073l9.166-6.632H59zm-32.564-1.205h19.397V8.208H26.437v3.531zm-7.28 7.933h3.537V.275h-6.996L11.8 18.767h-.906L6.996.275H0v19.397h3.537V3.492l-.63-2.312H4.02l4.09 18.492h6.501L18.674 1.18h1.14l-.657 2.312v16.18z" fill="#1E2337" fill-rule="evenodd"></path></svg>